<?xml version="1.0" encoding="UTF-8"?>
<svg xmlns="http://www.w3.org/2000/svg" version="1.1" viewBox="0 0 113.1 113.1">
  <defs>
    <style>
      .cls-1 {
        fill: #32d951;
      }

      .cls-2 {
        fill: #fff;
      }
    </style>
  </defs>
  <!-- Generator: Adobe Illustrator 28.6.0, SVG Export Plug-In . SVG Version: 1.2.0 Build 709)  -->
  <g>
    <g id="Layer_2">
      <g id="Layer_1-2">
        <g>
          <circle class="cls-1" cx="56.5" cy="56.5" r="55.5"/>
          <path class="cls-2" d="M83.8,28.9c-7.3-7.3-17-11.3-27.3-11.3-21.3,0-38.6,17.3-38.6,38.6s1.8,13.4,5.1,19.3l-5.5,20,20.5-5.4c5.6,3.1,12,4.7,18.4,4.7h0c21.3,0,39-17.3,39-38.6s-4.4-20-11.7-27.3h0ZM56.5,88.3c-5.8,0-11.4-1.6-16.3-4.5l-1.2-.7-12.1,3.2,3.2-11.8-.8-1.2c-3.2-5.1-4.9-11-4.9-17.1,0-17.7,14.4-32.1,32.1-32.1s16.6,3.3,22.7,9.4c6.1,6.1,9.8,14.1,9.8,22.7,0,17.7-14.8,32.1-32.4,32.1h0ZM74.1,64.3c-1-.5-5.7-2.8-6.6-3.1-.9-.3-1.5-.5-2.2.5-.6,1-2.5,3.1-3.1,3.8-.6.6-1.1.7-2.1.2-5.7-2.8-9.4-5.1-13.1-11.5-1-1.7,1-1.6,2.8-5.3.3-.6.2-1.2,0-1.7s-2.2-5.2-3-7.2c-.8-1.9-1.6-1.6-2.2-1.7-.6,0-1.2,0-1.8,0s-1.7.2-2.6,1.2c-.9,1-3.4,3.3-3.4,8s3.5,9.3,3.9,10c.5.6,6.8,10.4,16.5,14.6,6.1,2.6,8.5,2.9,11.6,2.4,1.9-.3,5.7-2.3,6.5-4.6s.8-4.2.6-4.6c-.2-.4-.9-.7-1.8-1.2h0Z"/>
        </g>
      </g>
    </g>
  </g>
</svg>