<?xml version="1.0" encoding="UTF-8"?>
<svg id="Layer_2" xmlns="http://www.w3.org/2000/svg" viewBox="0 0 33.54 33.54">
  <defs>
    <style>
      .cls-1 {
        fill: #fff;
      }
    </style>
  </defs>
  <g id="Layer_1-2" data-name="Layer_1">
    <path class="cls-1" d="M28.51,4.87C25.38,1.73,21.2,0,16.76,0,7.6,0,.14,7.46.14,16.62c0,2.93.76,5.79,2.22,8.31l-2.36,8.61,8.81-2.31c2.43,1.32,5.16,2.02,7.94,2.02h0c9.16,0,16.78-7.46,16.78-16.62,0-4.44-1.89-8.61-5.02-11.75ZM16.76,30.44c-2.49,0-4.92-.67-7.04-1.92l-.5-.3-5.23,1.37,1.39-5.1-.33-.52c-1.38-2.2-2.11-4.74-2.11-7.35,0-7.61,6.2-13.81,13.82-13.81,3.69,0,7.16,1.44,9.76,4.05s4.21,6.08,4.2,9.77c0,7.62-6.36,13.82-13.97,13.82ZM24.34,20.1c-.41-.21-2.46-1.21-2.84-1.35-.38-.14-.66-.21-.94.21-.28.42-1.07,1.35-1.32,1.63-.24.28-.49.31-.9.1-2.44-1.22-4.04-2.18-5.65-4.94-.43-.73.43-.68,1.22-2.27.13-.28.07-.52-.04-.73s-.94-2.25-1.28-3.08c-.34-.81-.68-.7-.94-.71-.24-.01-.52-.01-.79-.01s-.73.1-1.11.52c-.38.42-1.45,1.42-1.45,3.47s1.49,4.02,1.69,4.3c.21.28,2.93,4.47,7.1,6.27,2.63,1.14,3.67,1.24,4.99,1.04.8-.12,2.46-1,2.8-1.98s.34-1.8.24-1.98c-.1-.19-.37-.29-.79-.49Z"/>
  </g>
</svg>