<?xml version="1.0" encoding="UTF-8"?>
<svg id="Layer_2" xmlns="http://www.w3.org/2000/svg" viewBox="0 0 40.04 33.41">
  <defs>
    <style>
      .cls-1 {
        fill: #fff;
      }
    </style>
  </defs>
  <g id="Layer_1-2" data-name="Layer_1">
    <g>
      <path class="cls-1" d="M39.92,9.82c-.13-2.68-.74-5.05-2.7-7-1.95-1.95-4.32-2.56-7-2.7C27.46-.04,12.58-.04,9.82.12c-2.67.13-5.04.74-7,2.69C.86,4.76.25,7.13.12,9.81-.04,12.57-.04,20.84.12,23.59c.13,2.68.74,5.05,2.7,7,1.96,1.95,4.32,2.56,7,2.7,2.76.16,17.65.16,20.4,0,2.68-.13,5.05-.74,7-2.7,1.95-1.95,2.56-4.32,2.7-7,.16-2.76.16-11.02,0-13.78h0ZM36.36,26.55c-.58,1.46-1.71,2.59-3.18,3.18-2.2.87-14.04.67-16.47.67s-7.66.19-9.85-.67c-1.46-.58-2.59-1.71-3.18-3.18-.87-2.2-.67-7.42-.67-9.85s-.19-7.66.67-9.85c.58-1.46,1.71-2.59,3.18-3.18,2.2-.87,7.42-.67,9.85-.67s14.28-.19,16.47.67c1.46.58,2.59,1.71,3.18,3.18.87,2.2.67,7.42.67,9.85s.2,7.66-.67,9.85Z"/>
      <path class="cls-1" d="M19.95,18.62c-.42,0-.84-.12-1.2-.37L3.19,7.62c-.97-.66-1.22-1.98-.56-2.95.66-.97,1.98-1.22,2.95-.56l14.38,9.82,14.51-9.82c.97-.66,2.29-.4,2.94.57.66.97.4,2.29-.57,2.94l-15.7,10.63c-.36.24-.77.36-1.19.36Z"/>
    </g>
  </g>
</svg>