<?xml version="1.0" encoding="UTF-8"?>
<svg id="Layer_2" xmlns="http://www.w3.org/2000/svg" viewBox="0 0 24.48 34.77">
  <defs>
    <style>
      .cls-1 {
        fill: #fff;
      }
    </style>
  </defs>
  <g id="Layer_1-2" data-name="Layer_1">
    <g>
      <path class="cls-1" d="M12.24,34.77C4.6,34.77,0,16.22,0,11.37,0,5.1,5.49,0,12.24,0s12.24,5.1,12.24,11.37c0,4.84-4.6,23.4-12.24,23.4ZM12.24,2.46C6.95,2.46,2.65,6.46,2.65,11.37c0,6.08,5.12,20.94,9.59,20.94s9.59-14.86,9.59-20.94c0-4.91-4.3-8.91-9.59-8.91Z"/>
      <path class="cls-1" d="M12.24,18.34c-3.1,0-5.63-2.53-5.63-5.63s2.53-5.63,5.63-5.63,5.63,2.53,5.63,5.63-2.53,5.63-5.63,5.63ZM12.24,9.16c-1.96,0-3.55,1.59-3.55,3.55s1.59,3.55,3.55,3.55,3.55-1.59,3.55-3.55-1.59-3.55-3.55-3.55Z"/>
    </g>
  </g>
</svg>