<?xml version="1.0" encoding="UTF-8"?>
<svg id="Layer_2" xmlns="http://www.w3.org/2000/svg" version="1.1" viewBox="0 0 20.9 20.9">
  <!-- Generator: Adobe Illustrator 29.5.1, SVG Export Plug-In . SVG Version: 2.1.0 Build 141)  -->
  <defs>
    <style>
      .st0 {
        fill: #74acdf;
      }

      .st1 {
        fill: #f6b40e;
      }

      .st2 {
        fill: #fff;
      }

      .st3 {
        fill: #85340a;
      }

      .st4 {
        fill: #843511;
      }
    </style>
  </defs>
  <rect class="st0" width="20.9" height="20.9"/>
  <rect class="st2" y="7" width="20.9" height="7"/>
  <g id="rays">
    <g>
      <path id="ray1" class="st1" d="M10.3,10.5l1.2,2.6s0,0,0,0c0,0,0,0,0,0l-1-2.7M10.6,11.4c0,.4.2.6.2,1,0,.4.2.6.2.7,0,.1,0,.2,0,.2,0,0,.1,0,0-.3,0-.2-.2-.3-.1-.7,0-.4-.2-.5-.1-.9"/>
      <path class="st3" d="M11,13.3s0,0,0,0c0,0,0,0,0,0,0,0,0,0,0-.2,0,0,0,0,0-.1,0-.1-.2-.3-.1-.6,0-.2,0-.3,0-.5,0-.1-.1-.3-.1-.5h0c0,.2,0,.3.1.5,0,.2.1.3,0,.5,0,.3,0,.4.1.5,0,0,0,0,0,.1,0,0,0,.2,0,.2,0,0,0,0,0,0,0,0,0,0,0,0,0,0,0-.1,0-.2,0,0,0-.1,0-.2,0-.1-.1-.2,0-.5,0-.2,0-.3,0-.5,0-.1,0-.2,0-.4l-.5-1h0s.4.9.4.9c0,0,0,0,0,0h0s0,0,0,0l.7,1.6s0,0,0,0c0,0,0,0,0,0l-1-2.7h0s1,2.7,1,2.7c0,0,0,0,0,0,0,0,0,0,0,0,0,0,0,0,0,0l-.7-1.5c0,0,0,.2,0,.2,0,.1,0,.3,0,.5,0,.3,0,.4,0,.5,0,0,0,.1,0,.2,0,.2,0,.3,0,.3,0,0,0,0,0,0Z"/>
    </g>
    <g>
      <path id="ray11" data-name="ray1" class="st1" d="M10.3,10.5v2.9c.1,0,.1,0,.1,0,0,0,0,0,0,0v-2.9M10.2,11.4c-.2.4,0,.7-.2,1-.2.3,0,.6,0,.7,0,.1-.1.2,0,.2,0,0,.2,0,.2-.2,0-.2,0-.3.1-.7.2-.4,0-.6.2-.9"/>
      <path class="st3" d="M10.5,13.4s0,0,0,0v-1.6c0,0,0,.2,0,.2,0,.1,0,.3-.1.5-.1.2-.1.4-.1.5,0,0,0,.1,0,.2,0,.1-.1.2-.2.2,0,0,0,0,0,0,0,0,0,0,0,0,0,0,0,0,0-.2,0,0,0,0,0-.1,0-.1,0-.4,0-.6,0-.2,0-.3,0-.5,0-.2,0-.3,0-.5h0c0,.2,0,.4,0,.5,0,.2,0,.3,0,.5-.1.2,0,.4,0,.6,0,0,0,.1,0,.1,0,0,0,.1,0,.2,0,0,0,0,0,0,0,0,0,0,0,0,0,0,.1,0,.1-.2,0,0,0-.1,0-.2,0-.1,0-.3.1-.5,0-.2.1-.3.1-.5,0-.1,0-.2,0-.4v-1.1s0,0,0,0v1s0,0,0,0h0s0,0,0,0v1.8c0,0,0,0,0,0s0,0,0,0v-2.9c.1,0,.2,0,.2,0v2.9c-.1,0-.1,0-.2,0Z"/>
    </g>
    <g>
      <path id="ray12" data-name="ray1" class="st1" d="M10.3,10.4l-1,2.7s0,0,0,0c0,0,0,0,0,0l1.2-2.6M9.9,11.2c-.3.3-.3.6-.5.8-.3.2-.3.5-.3.6,0,.1-.2.1-.2.2,0,0,.2,0,.3-.1.1-.2,0-.3.4-.6.3-.3.3-.5.6-.7"/>
      <path class="st3" d="M9.4,13.2s0,0,0,0c0,0,0,0,0,0,0,0,0,0,0,0l.6-1.5c0,0,0,.1-.1.2,0,.1-.1.2-.3.4-.2.2-.3.3-.3.4,0,0,0,.1,0,.2,0,.1-.2.2-.3.2,0,0,0,0,0,0,0,0,0,0,0,0,0,0,0,0,.1-.1,0,0,0,0,0-.1,0-.1,0-.3.3-.5.1-.1.2-.2.3-.4,0-.1.1-.3.3-.4h0c-.1.2-.2.3-.3.5,0,.1-.1.3-.3.4-.2.2-.2.4-.3.5,0,0,0,0,0,.1,0,0-.1.1-.1.1,0,0,0,0,0,0,0,0,0,0,0,0,0,0,.1,0,.2-.1,0,0,0,0,0-.2,0-.1,0-.2.3-.4.2-.1.2-.3.3-.4,0-.1.1-.2.2-.3l.4-1h0s-.3,1-.3,1c0,0,0,0,0,0h0c0,0,0,0,0,0l-.6,1.6s0,0,0,0c0,0,0,0,0,0,0,0,0,0,0,0l1.2-2.6h0s-1.2,2.6-1.2,2.6c0,0,0,0,0,0,0,0,0,0,0,0Z"/>
    </g>
    <g>
      <path id="ray13" data-name="ray1" class="st1" d="M10.4,10.4l-1.9,2.1s0,0,0,0c0,0,0,0,0,0l2.1-1.9M9.6,10.9c-.4.1-.5.4-.8.6-.3.1-.4.4-.6.5-.1,0-.2,0-.2,0,0,0,.1,0,.3,0,.2-.1.2-.3.6-.4.4-.1.4-.4.8-.5"/>
      <path class="st3" d="M8.4,12.5s0,0,0,0c0,0,0,0,0,0,0,0,0,0,0,0l1.1-1.2c0,0-.1,0-.2.1-.1,0-.2.2-.4.2-.3,0-.4.2-.4.3,0,0,0,0-.1.1-.1,0-.2,0-.3,0,0,0,0,0,0,0,0,0,0,0,0,0,0,0,0,0,.2,0,0,0,0,0,0-.1,0-.1.2-.3.5-.4.2,0,.3-.2.4-.3.1-.1.2-.2.4-.3h0c-.2.1-.3.2-.4.3-.1.1-.2.2-.4.3-.2,0-.4.2-.5.3,0,0,0,0,0,.1,0,0-.1,0-.2,0,0,0,0,0,0,0,0,0,0,0,0,0,0,0,.1,0,.2,0,0,0,0,0,.1-.1,0,0,.2-.2.5-.3.2,0,.3-.2.4-.2,0,0,.2-.1.3-.2l.7-.8h0s-.7.8-.7.8c0,0,0,0,0,0h0c0,0,0,0,0,0l-1.2,1.3s0,0,0,0c0,0,0,0,0,0l2.1-1.9h0s-2.1,2-2.1,2c0,0,0,0,0,0,0,0,0,0,0,0Z"/>
    </g>
    <path id="ray2" class="st3" d="M10.6,11.5c0,.4.2.5.2.9,0-.3-.1-.5-.1-.9M10.4,10.5l.8,1.8-.7-1.8"/>
    <path id="ray21" data-name="ray2" class="st3" d="M10.2,11.5c-.1.4,0,.6-.2.9.2-.2,0-.5.2-.9M10.4,10.5v2c0,0,.1-2,.1-2"/>
    <path id="ray22" data-name="ray2" class="st3" d="M9.9,11.3c-.3.3-.2.6-.5.8.3-.1.3-.4.5-.7M10.4,10.4l-.7,1.8.8-1.8"/>
    <path id="ray23" data-name="ray2" class="st3" d="M9.6,11c-.3.2-.4.4-.8.5.3,0,.4-.3.8-.4M10.4,10.4l-1.3,1.4,1.4-1.3"/>
  </g>
  <g id="rays1" data-name="rays">
    <g>
      <path id="ray14" data-name="ray1" class="st1" d="M10.4,10.3l-2.6,1.2s0,0,0,0c0,0,0,0,0,0l2.7-1M9.5,10.6c-.4,0-.6.2-1,.2-.4,0-.6.2-.7.2-.1,0-.2,0-.2,0,0,0,0,.1.3,0,.2,0,.3-.2.7-.1.4,0,.5-.2.9-.1"/>
      <path class="st3" d="M7.8,11.6s0,0,0,0c0,0,0,0,0,0,0,0,0,0,0,0l1.5-.7c0,0-.2,0-.2,0-.1,0-.3,0-.5,0-.3,0-.4,0-.5,0,0,0-.1,0-.2,0-.2,0-.3,0-.3,0,0,0,0,0,0,0,0,0,0,0,0,0,0,0,0,0,.2,0,0,0,0,0,.1,0,.1,0,.3-.2.6-.1.2,0,.3,0,.5,0,.1,0,.3-.1.5-.1h0c-.2,0-.3,0-.5.1-.2,0-.3.1-.5,0-.3,0-.4,0-.5.1,0,0,0,0-.1,0,0,0-.2,0-.2,0,0,0,0,0,0,0,0,0,0,0,0,0,0,0,.1,0,.2,0,0,0,.1,0,.2,0,.1,0,.2-.1.5,0,.2,0,.3,0,.5,0,.1,0,.2,0,.4,0l1-.5h0s-.9.5-.9.5c0,0,0,0,0,0h0s0,0,0,0l-1.6.7s0,0,0,0c0,0,0,0,0,0,0,0,0,0,0,0l2.7-1h0s-2.7,1-2.7,1c0,0,0,0,0,0Z"/>
    </g>
    <g>
      <path id="ray15" data-name="ray1" class="st1" d="M10.5,10.3h-2.9c0,.1,0,.1,0,.1,0,0,0,0,0,0h2.9M9.5,10.2c-.4-.2-.7,0-1-.2-.3-.2-.6,0-.7,0-.1,0-.2-.1-.2,0,0,0,0,.2.2.2.2,0,.3,0,.7.1.4.2.6,0,.9.2"/>
      <path class="st3" d="M10.5,10.6h-2.9c0-.1,0-.1,0-.1,0,0,0,0,0,0,0,0,0,0,0,0h1.6c0,0-.2,0-.2,0-.1,0-.3,0-.5-.1-.2-.1-.4-.1-.5-.1,0,0-.1,0-.2,0-.1,0-.2-.1-.2-.2,0,0,0,0,0,0,0,0,0,0,0,0,0,0,0,0,.2,0,0,0,0,0,.1,0,.1,0,.4,0,.6,0,.2,0,.3,0,.5,0,.2,0,.3,0,.5,0h0c-.2,0-.3,0-.5,0-.2,0-.3,0-.5,0-.2-.1-.4,0-.6,0,0,0-.1,0-.1,0,0,0-.1,0-.2,0,0,0,0,0,0,0,0,0,0,0,0,0,0,0,0,.1.2.1,0,0,.1,0,.2,0,.1,0,.3,0,.5.1.2,0,.3.1.5.1.1,0,.2,0,.4,0h1.1s0,0,0,0h-1s0,0,0,0h0s0,0,0,0h-1.8c0,0,0,0,0,0s0,0,0,0c0,0,0,0,0,0h2.9c0,.1,0,.2,0,.2Z"/>
    </g>
    <g>
      <path id="ray16" data-name="ray1" class="st1" d="M10.5,10.3l-2.7-1s0,0,0,0c0,0,0,0,0,0l2.6,1.2M9.7,9.9c-.3-.3-.6-.3-.8-.5-.2-.3-.5-.3-.6-.3-.1,0-.1-.2-.2-.2,0,0,0,.2.1.3.2.1.3,0,.6.4.3.3.5.3.7.6"/>
      <path class="st3" d="M10.4,10.6l-2.6-1.2s0,0,0,0c0,0,0,0,0,0,0,0,0,0,0,0,0,0,0,0,0,0l1.5.6c0,0-.1,0-.2-.1-.1,0-.2-.1-.4-.3-.2-.2-.3-.3-.4-.3,0,0-.1,0-.2,0-.1,0-.2-.2-.2-.3,0,0,0,0,0,0,0,0,0,0,0,0,0,0,0,0,.1.1,0,0,0,0,.1,0,.1,0,.3,0,.5.3.1.1.2.2.4.3.1,0,.3.1.4.3h0c-.1-.1-.3-.2-.4-.2-.1,0-.3-.1-.4-.3-.2-.2-.4-.2-.5-.3,0,0,0,0-.1,0,0,0-.1-.1-.1-.1,0,0,0,0,0,0,0,0,0,0,0,0,0,0,0,.1.1.2,0,0,0,0,.2,0,.1,0,.2,0,.4.3.1.2.3.2.4.3.1,0,.2.1.3.2l1,.4h0s-.9-.3-.9-.3c0,0,0,0,0,0h0s0,0,0,0l-1.6-.6s0,0,0,0c0,0,0,0,0,0l2.6,1.2h0Z"/>
    </g>
    <g>
      <path id="ray17" data-name="ray1" class="st1" d="M10.6,10.4l-2.1-1.9s0,0,0,0c0,0,0,0,0,0l1.9,2.1M10,9.6c-.1-.4-.4-.5-.6-.8-.1-.3-.4-.4-.5-.6,0-.1,0-.2,0-.2,0,0,0,.1,0,.3.1.2.3.2.4.6.1.4.4.4.5.8"/>
      <path class="st3" d="M10.3,10.6l-1.9-2.1s0,0,0,0c0,0,0,0,0,0,0,0,0,0,0,0,0,0,0,0,0,0l1.2,1.1c0,0,0-.1-.1-.2,0-.1-.2-.2-.2-.4,0-.3-.2-.4-.3-.4,0,0,0,0-.1-.1,0-.1,0-.2,0-.3,0,0,0,0,0,0,0,0,0,0,0,0,0,0,0,0,0,.2,0,0,0,0,.1,0,.1,0,.3.2.4.5,0,.2.2.3.3.4.1.1.2.2.3.4h0c0-.2-.2-.3-.3-.4-.1-.1-.2-.2-.3-.4,0-.2-.2-.4-.3-.5,0,0,0,0-.1,0,0,0,0-.1,0-.2,0,0,0,0,0,0,0,0,0,0,0,0,0,0,0,.1,0,.2,0,0,0,0,.1.1,0,0,.2.2.3.5,0,.2.2.3.2.4,0,0,.1.2.2.3l.8.7h0s-.7-.6-.7-.6c0,0,0,0,0,0h0s0,0,0,0l-1.3-1.2s0,0,0,0c0,0,0,0,0,0,0,0,0,0,0,0l1.9,2.1h0Z"/>
    </g>
    <path id="ray24" data-name="ray2" class="st3" d="M9.4,10.6c-.4,0-.5.2-.9.2.3,0,.5-.1.9-.1M10.4,10.4l-1.8.8,1.8-.7"/>
    <path id="ray25" data-name="ray2" class="st3" d="M9.4,10.2c-.4-.1-.6,0-.9-.2.2.2.5,0,.9.2M10.5,10.4h-2c0,0,2,.1,2,.1"/>
    <path id="ray26" data-name="ray2" class="st3" d="M9.6,9.9c-.3-.3-.6-.2-.8-.5.1.3.4.3.7.5M10.5,10.4l-1.8-.7,1.8.8"/>
    <path id="ray27" data-name="ray2" class="st3" d="M9.9,9.6c-.2-.3-.4-.4-.5-.8,0,.3.3.4.4.8M10.5,10.4l-1.4-1.3,1.3,1.4"/>
  </g>
  <g id="rays2" data-name="rays">
    <g>
      <path id="ray18" data-name="ray1" class="st1" d="M10.6,10.4l-1.2-2.6s0,0,0,0c0,0,0,0,0,0l1,2.7M10.4,9.5c0-.4-.2-.6-.2-1,0-.4-.2-.6-.2-.7,0-.1,0-.2,0-.2,0,0-.1,0,0,.3,0,.2.2.3.1.7,0,.4.2.5.1.9"/>
      <path class="st3" d="M10.3,10.5l-1-2.7s0,0,0,0c0,0,0,0,0,0,0,0,0,0,0,0l.7,1.5c0,0,0-.2,0-.2,0-.1,0-.3,0-.5,0-.3,0-.4,0-.5,0,0,0-.1,0-.2,0-.2,0-.3,0-.3,0,0,0,0,0,0,0,0,0,0,0,0,0,0,0,0,0,.2,0,0,0,0,0,.1,0,.1.2.3.1.6,0,.2,0,.3,0,.5,0,.1.1.3.1.5h0c0-.2,0-.3-.1-.5,0-.2-.1-.3,0-.5,0-.3,0-.4-.1-.5,0,0,0,0,0-.1,0,0,0-.2,0-.2,0,0,0,0,0,0,0,0,0,0,0,0,0,0,0,.1,0,.2,0,0,0,.1,0,.2,0,.1.1.2,0,.5,0,.2,0,.3,0,.5,0,.1,0,.2,0,.4l.5,1h0s-.4-.9-.4-.9c0,0,0,0,0,0h0s0,0,0,0l-.7-1.6s0,0,0,0c0,0,0,0,0,0l1,2.7h0Z"/>
    </g>
    <g>
      <path id="ray19" data-name="ray1" class="st1" d="M10.6,10.5v-2.9c-.1,0-.1,0-.1,0,0,0,0,0,0,0v2.9M10.7,9.5c.2-.4,0-.7.2-1,.2-.3,0-.6,0-.7,0-.1.1-.2,0-.2,0,0-.2,0-.2.2,0,.2,0,.3-.1.7-.2.4,0,.6-.2.9"/>
      <path class="st3" d="M10.6,10.5v-1s0,0,0,0h0s0,0,0,0v-1.8c0,0,0,0,0,0h0s0,0,0,0v2.9c-.1,0-.2,0-.2,0v-2.9c.1,0,.1,0,.1,0s0,0,0,0h0s0,0,0,0v1.6c0,0,0-.2,0-.2,0-.1,0-.3.1-.5.1-.2.1-.4.1-.5,0,0,0-.1,0-.2,0-.1.1-.2.2-.2,0,0,0,0,0,0,0,0,0,0,0,0,0,0,0,0,0,.2,0,0,0,0,0,.1,0,.1,0,.4,0,.6,0,.2,0,.3,0,.5,0,.2,0,.3,0,.5h0c0-.2,0-.4,0-.5,0-.2,0-.3,0-.5.1-.2,0-.4,0-.6,0,0,0-.1,0-.1,0,0,0-.1,0-.2,0,0,0,0,0,0,0,0,0,0,0,0,0,0-.1,0-.1.2,0,0,0,.1,0,.2,0,.1,0,.3-.1.5,0,.2-.1.3-.1.5,0,.1,0,.2,0,.4v1.1s0,0,0,0Z"/>
    </g>
    <g>
      <path id="ray110" data-name="ray1" class="st1" d="M10.6,10.5l1-2.7s0,0,0,0c0,0,0,0,0,0l-1.2,2.6M11.1,9.7c.3-.3.3-.6.5-.8.3-.2.3-.5.3-.6,0-.1.2-.1.2-.2,0,0-.2,0-.3.1-.1.2,0,.3-.4.6-.3.3-.3.5-.6.7"/>
      <path class="st3" d="M10.6,10.5h0s.3-1,.3-1c0,0,0,0,0,0h0c0,0,0,0,0,0l.6-1.6s0,0,0,0c0,0,0,0,0,0,0,0,0,0,0,0l-1.2,2.6h0s1.2-2.6,1.2-2.6c0,0,0,0,0,0,0,0,0,0,0,0,0,0,0,0,0,0,0,0,0,0,0,0l-.6,1.5c0,0,0-.1.1-.2,0-.1.1-.2.3-.4.2-.2.3-.3.3-.4,0,0,0-.1,0-.2,0-.1.2-.2.3-.2,0,0,0,0,0,0,0,0,0,0,0,0,0,0,0,0-.1.1,0,0,0,0,0,.1,0,.1,0,.3-.3.5-.1.1-.2.2-.3.4,0,.1-.1.3-.3.4h0c.1-.2.2-.3.3-.5,0-.1.1-.3.3-.4.2-.2.2-.4.3-.5,0,0,0,0,0-.1,0,0,.1-.1.1-.1,0,0,0,0,0,0,0,0,0,0,0,0h0s-.1,0-.2.1c0,0,0,0,0,.2,0,.1,0,.2-.3.4-.2.1-.2.3-.3.4,0,.1-.1.2-.2.3l-.4,1Z"/>
    </g>
    <g>
      <path id="ray111" data-name="ray1" class="st1" d="M10.6,10.6l1.9-2.1s0,0,0,0c0,0,0,0,0,0l-2.1,1.9M11.3,10c.4-.1.5-.4.8-.6.3-.1.4-.4.6-.5.1,0,.2,0,.2,0,0,0-.1,0-.3,0-.2.1-.2.3-.6.4-.4.1-.4.4-.8.5"/>
      <path class="st3" d="M10.6,10.6h0s.7-.8.7-.8c0,0,0,0,0,0h0c0,0,0,0,0,0l1.2-1.3s0,0,0,0c0,0,0,0,0,0l-2.1,1.9h0s2.1-2,2.1-2c0,0,0,0,0,0,0,0,0,0,0,0,0,0,0,0,0,0l-1.1,1.2c0,0,.1,0,.2-.1.1,0,.2-.2.4-.2.3,0,.4-.2.4-.3,0,0,0,0,.1-.1.1,0,.2,0,.3,0,0,0,0,0,0,0,0,0,0,0,0,0,0,0,0,0-.2,0,0,0,0,0,0,.1,0,.1-.2.3-.5.4-.2,0-.3.2-.4.3-.1.1-.2.2-.4.3h0c.2-.1.3-.2.4-.3.1-.1.2-.2.4-.3.2,0,.4-.2.5-.3,0,0,0,0,0-.1,0,0,.1,0,.2,0,0,0,0,0,0,0,0,0,0,0,0,0,0,0-.1,0-.2,0,0,0,0,0-.1.1,0,0-.2.2-.5.3-.2,0-.3.2-.4.2,0,0-.2.1-.3.2l-.7.8Z"/>
    </g>
    <path id="ray28" data-name="ray2" class="st3" d="M10.3,9.4c0-.4-.2-.5-.2-.9,0,.3.1.5.1.9M10.5,10.4l-.8-1.8.7,1.8"/>
    <path id="ray29" data-name="ray2" class="st3" d="M10.7,9.4c.1-.4,0-.6.2-.9-.2.2,0,.5-.2.9M10.5,10.5v-2c0,0-.1,2-.1,2"/>
    <path id="ray210" data-name="ray2" class="st3" d="M11.1,9.6c.3-.3.2-.6.5-.8-.3.1-.3.4-.5.7M10.5,10.5l.7-1.8-.8,1.8"/>
    <path id="ray211" data-name="ray2" class="st3" d="M11.3,9.9c.3-.2.4-.4.8-.5-.3,0-.4.3-.8.4M10.5,10.5l1.3-1.4-1.4,1.3"/>
  </g>
  <g id="rays3" data-name="rays">
    <g>
      <path id="ray112" data-name="ray1" class="st1" d="M10.5,10.6l2.6-1.2s0,0,0,0c0,0,0,0,0,0l-2.7,1M11.4,10.4c.4,0,.6-.2,1-.2.4,0,.6-.2.7-.2.1,0,.2,0,.2,0,0,0,0-.1-.3,0-.2,0-.3.2-.7.1-.4,0-.5.2-.9.1"/>
      <path class="st3" d="M10.5,10.6h0s.9-.5.9-.5c0,0,0,0,0,0h0s0,0,0,0l1.6-.7s0,0,0,0c0,0,0,0,0,0l-2.7,1h0s2.7-1,2.7-1c0,0,0,0,0,0,0,0,0,0,0,0,0,0,0,0,0,0l-1.5.7c0,0,.2,0,.2,0,.1,0,.3,0,.5,0,.3,0,.4,0,.5,0,0,0,.1,0,.2,0,.2,0,.3,0,.3,0,0,0,0,0,0,0,0,0,0,0,0,0,0,0,0,0-.2,0,0,0,0,0-.1,0-.1,0-.3.2-.6.1-.2,0-.3,0-.5,0-.1,0-.3.1-.5.1h0c.2,0,.3,0,.5-.1.2,0,.3-.1.5,0,.3,0,.4,0,.5-.1,0,0,0,0,.1,0,0,0,.2,0,.2,0,0,0,0,0,0,0,0,0,0,0,0,0,0,0-.1,0-.2,0,0,0-.1,0-.2,0-.1,0-.2.1-.5,0-.2,0-.3,0-.5,0-.1,0-.2,0-.4,0l-1,.5Z"/>
    </g>
    <g>
      <path id="ray113" data-name="ray1" class="st1" d="M10.5,10.6h2.9c0-.1,0-.1,0-.1,0,0,0,0,0,0h-2.9M11.4,10.7c.4.2.7,0,1,.2.3.2.6,0,.7,0,.1,0,.2.1.2,0,0,0,0-.2-.2-.2-.2,0-.3,0-.7-.1-.4-.2-.6,0-.9-.2"/>
      <path class="st3" d="M13.3,11.1s0,0,0,0c0,0,0,0-.2,0,0,0,0,0-.1,0-.1,0-.4,0-.6,0-.2,0-.3,0-.5,0-.2,0-.3,0-.5,0h0c.2,0,.3,0,.5,0,.2,0,.3,0,.5,0,.2.1.4,0,.6,0,0,0,.1,0,.1,0,0,0,.1,0,.2,0,0,0,0,0,0,0,0,0,0,0,0,0,0,0,0-.1-.2-.1,0,0-.1,0-.2,0-.1,0-.3,0-.5-.1-.2,0-.3-.1-.5-.1-.1,0-.2,0-.4,0h-1.1s0,0,0,0h1s0,0,0,0h0s0,0,0,0h1.8c0,0,0,0,0,0s0,0,0,0h-2.9c0-.1,0-.2,0-.2h2.9c0,.1,0,.1,0,.1,0,0,0,0,0,0,0,0,0,0,0,0h-1.6c0,0,.2,0,.2,0,.1,0,.3,0,.5.1.2.1.4.1.5.1,0,0,.1,0,.2,0,.1,0,.2.1.2.2,0,0,0,0,0,0,0,0,0,0,0,0Z"/>
    </g>
    <g>
      <path id="ray114" data-name="ray1" class="st1" d="M10.4,10.6l2.7,1s0,0,0,0c0,0,0,0,0,0l-2.6-1.2M11.2,11.1c.3.3.6.3.8.5.2.3.5.3.6.3.1,0,.1.2.2.2,0,0,0-.2-.1-.3-.2-.1-.3,0-.6-.4-.3-.3-.5-.3-.7-.6"/>
      <path class="st3" d="M12.8,12.1s0,0,0,0c0,0,0,0-.1-.1,0,0,0,0-.1,0-.1,0-.3,0-.5-.3-.1-.1-.2-.2-.4-.3-.1,0-.3-.1-.4-.3h0c.1.1.3.2.4.2.1,0,.3.1.4.3.2.2.4.2.5.3,0,0,0,0,.1,0,0,0,.1.1.1.1,0,0,0,0,0,0,0,0,0,0,0,0,0,0,0-.1-.1-.2,0,0,0,0-.2,0-.1,0-.2,0-.4-.3-.1-.2-.3-.2-.4-.3-.1,0-.2-.1-.3-.2l-1-.4h0s.9.3.9.3c0,0,0,0,0,0h0s0,0,0,0l1.6.6s0,0,0,0c0,0,0,0,0,0,0,0,0,0,0,0l-2.6-1.2h0s2.6,1.1,2.6,1.1c0,0,0,0,0,0,0,0,0,0,0,0,0,0,0,0,0,0,0,0,0,0,0,0l-1.5-.6c0,0,.1,0,.2.1.1,0,.2.1.4.3.2.2.3.3.4.3,0,0,.1,0,.2,0,.1,0,.2.2.2.3,0,0,0,0,0,0,0,0,0,0,0,0Z"/>
    </g>
    <g>
      <path id="ray115" data-name="ray1" class="st1" d="M10.4,10.6l2.1,1.9s0,0,0,0c0,0,0,0,0,0l-1.9-2.1M10.9,11.3c.1.4.4.5.6.8.1.3.4.4.5.6,0,.1,0,.2,0,.2,0,0,0-.1,0-.3-.1-.2-.3-.2-.4-.6-.1-.4-.4-.4-.5-.8"/>
      <path class="st3" d="M12,12.9s0,0,0,0c0,0,0,0,0,0,0,0,0,0,0-.2,0,0,0,0-.1,0-.1,0-.3-.2-.4-.5,0-.2-.2-.3-.3-.4-.1-.1-.2-.2-.3-.4h0c0,.2.2.3.3.4.1.1.2.2.3.4,0,.2.2.4.3.5,0,0,0,0,.1,0,0,0,0,.1,0,.2,0,0,0,0,0,0,0,0,0,0,0,0,0,0,0-.1,0-.2,0,0,0,0-.1-.1,0,0-.2-.2-.3-.5,0-.2-.2-.3-.2-.4,0,0-.1-.2-.2-.3l-.8-.7h0s.7.6.7.6c0,0,0,0,0,0h0s0,0,0,0l1.3,1.2s0,0,0,0c0,0,0,0,0,0l-1.9-2.1h0s1.9,2.1,1.9,2.1c0,0,0,0,0,0,0,0,0,0,0,0l-1.2-1.1c0,0,0,.1.1.2,0,.1.2.2.2.4,0,.3.2.4.3.4,0,0,0,0,.1.1,0,.1,0,.2,0,.3,0,0,0,0,0,0Z"/>
    </g>
    <path id="ray212" data-name="ray2" class="st3" d="M11.5,10.3c.4,0,.5-.2.9-.2-.3,0-.5.1-.9.1M10.5,10.5l1.8-.8-1.8.7"/>
    <path id="ray213" data-name="ray2" class="st3" d="M11.5,10.7c.4.1.6,0,.9.2-.2-.2-.5,0-.9-.2M10.5,10.5h2c0,0-2-.1-2-.1"/>
    <path id="ray214" data-name="ray2" class="st3" d="M11.3,11.1c.3.3.6.2.8.5-.1-.3-.4-.3-.7-.5M10.4,10.5l1.8.7-1.8-.8"/>
    <path id="ray215" data-name="ray2" class="st3" d="M11,11.3c.2.3.4.4.5.8,0-.3-.3-.4-.4-.8M10.4,10.5l1.4,1.3-1.3-1.4"/>
  </g>
  <g>
    <circle class="st1" cx="10.5" cy="10.5" r="1.2"/>
    <path class="st3" d="M10.5,11.7c-.7,0-1.2-.5-1.2-1.2s.5-1.2,1.2-1.2,1.2.5,1.2,1.2-.5,1.2-1.2,1.2ZM10.5,9.3c-.6,0-1.1.5-1.1,1.1s.5,1.1,1.1,1.1,1.1-.5,1.1-1.1-.5-1.1-1.1-1.1Z"/>
  </g>
  <path id="loweyecontour" class="st4" d="M10.9,10.2c0,0-.2,0-.2.1,0,0,.3,0,.4,0,0,0-.1,0-.2,0h0ZM10.9,10.2c0,0,.1,0,.2,0,0,0-.2,0-.3,0,0,0,.1,0,.2,0h0Z"/>
  <path id="uppalpebra" class="st3" d="M10.9,10.2c-.1,0-.1,0-.2,0,0,0,0,0,0,0,0,0,0,0,0,0s0,0,.1,0c0,0,.1,0,.2,0,.2,0,.3.1.3.1,0,0,0-.2-.3-.2h0Z"/>
  <path id="eyebrow_nose" class="st3" d="M11.2,10.2c-.2-.2-.5-.2-.6,0,0,0,0,0,0,.1,0,.1,0,.2,0,.3,0,0,0,0,0,0,0-.1,0-.3,0-.4,0,0,0,0,0-.1.2-.2.5-.2.7,0h0Z"/>
  <circle id="pupil" class="st3" cx="10.9" cy="10.3" r="0"/>
  <path id="lowpalpebra" class="st3" d="M11.1,10.4c-.2.1-.3.1-.4,0,0,0,0,0,0,0s0,0,.1,0c0,0,.2,0,.4,0h0Z"/>
  <path class="st3" d="M10.3,10.6s0,0,0,0,0,0,0,0,0,0,0,0c0,0,0,0,0,0,0,0,0,0,0,0,0,0,0,0,0,0,0,0,0,0,0,0,0,0,0,0,0,0s0,0,0,0c0,0,0,0,0,0s0,0,0,0,0,0,0,0c0,0,0,0-.1,0,0,0-.1,0-.1,0,0,0,0,0,0,0s0,0,0,0,0,0,0,0h0Z"/>
  <path class="st3" d="M10.4,10.9c0,0-.1,0-.2.1,0,0,0,0,.1,0,0,0,.1,0,.2,0h0s0,0,.2,0c0,0,0,0,.1,0,0,0-.1-.1-.2-.1s0,0,0,0h0s0,0,0,0Z"/>
  <path class="st3" d="M10.3,11s0,0-.1,0c.2,0,.2,0,.3,0h0c0,0,.1,0,.3,0-.2,0-.2,0-.3,0h0s0,0-.1,0h0Z"/>
  <path class="st3" d="M10.2,11s0,0,0,0c.2,0,0,.1.3.1h0c.2,0,.1-.1.3-.1-.2,0-.1,0-.3,0h0c-.2,0-.1-.1-.3,0h0Z"/>
  <path class="st3" d="M10.6,11.3c0,0,0-.2-.2-.2s-.2,0-.2.2c0,0,0-.1.2-.1s.1,0,.2.1h0Z"/>
  <path id="eyebrow_nose1" data-name="eyebrow_nose" class="st3" d="M9.7,10.2c.2-.2.5-.2.6,0,0,0,0,0,0,.1,0,.1,0,.2,0,.3,0,0,0,0,0,0,0-.1,0-.3,0-.4,0,0,0,0,0-.1-.2-.2-.5-.2-.7,0h0Z"/>
  <path id="uppalpebra1" data-name="uppalpebra" class="st3" d="M10.1,10.2c.1,0,.1,0,.2,0,0,0,0,0,0,0,0,0,0,0,0,0s0,0-.1,0c0,0-.1,0-.2,0-.2,0-.3.1-.3.1,0,0,0-.2.3-.2h0Z"/>
  <path id="loweyecontour1" data-name="loweyecontour" class="st4" d="M10.1,10.2c0,0-.2,0-.2.1,0,0,.3,0,.4,0,0,0-.1,0-.2,0h0ZM10.1,10.2c0,0,.1,0,.2,0,0,0-.2,0-.3,0,0,0,.1,0,.2,0h0Z"/>
  <circle id="pupil1" data-name="pupil" class="st3" cx="10.1" cy="10.3" r="0"/>
  <path id="lowpalpebra1" data-name="lowpalpebra" class="st3" d="M9.8,10.4c.2.1.3.1.4,0,0,0,0,0,0,0s0,0-.1,0c0,0-.2,0-.4,0h0Z"/>
</svg>