<?xml version="1.0" encoding="UTF-8"?>
<svg id="Layer_2" xmlns="http://www.w3.org/2000/svg" viewBox="0 0 33.42 33.41">
  <defs>
    <style>
      .cls-1 {
        fill: #fff;
      }
    </style>
  </defs>
  <g id="Layer_1-2" data-name="Layer_1">
    <path class="cls-1" d="M16.71,8.14c-4.74,0-8.57,3.82-8.57,8.57s3.82,8.57,8.57,8.57,8.57-3.82,8.57-8.57-3.82-8.57-8.57-8.57ZM16.71,22.27c-3.06,0-5.57-2.5-5.57-5.57s2.5-5.57,5.57-5.57,5.57,2.5,5.57,5.57-2.5,5.57-5.57,5.57h0ZM27.63,7.79c0,1.11-.89,2-2,2s-2-.89-2-2,.89-2,2-2,2,.89,2,2ZM33.3,9.82c-.13-2.68-.74-5.05-2.7-7C28.65.86,26.28.25,23.6.12,20.84-.04,12.58-.04,9.82.12c-2.67.13-5.04.74-7,2.69S.25,7.13.12,9.81C-.04,12.57-.04,20.84.12,23.59c.13,2.68.74,5.05,2.7,7,1.96,1.95,4.32,2.56,7,2.7,2.76.16,11.03.16,13.78,0,2.68-.13,5.05-.74,7-2.7,1.95-1.95,2.56-4.32,2.7-7,.16-2.76.16-11.02,0-13.78h0ZM29.74,26.55c-.58,1.46-1.71,2.59-3.18,3.18-2.2.87-7.42.67-9.85.67s-7.66.19-9.85-.67c-1.46-.58-2.59-1.71-3.18-3.18-.87-2.2-.67-7.42-.67-9.85s-.19-7.66.67-9.85c.58-1.46,1.71-2.59,3.18-3.18,2.2-.87,7.42-.67,9.85-.67s7.66-.19,9.85.67c1.46.58,2.59,1.71,3.18,3.18.87,2.2.67,7.42.67,9.85s.2,7.66-.67,9.85Z"/>
  </g>
</svg>