<?xml version="1.0" encoding="UTF-8"?>
<svg id="Layer_1" xmlns="http://www.w3.org/2000/svg" version="1.1" viewBox="0 0 1181 1087">
  <!-- Generator: Adobe Illustrator 29.5.0, SVG Export Plug-In . SVG Version: 2.1.0 Build 137)  -->
  <defs>
    <style>
      .st0 {
        fill: #fff;
      }
    </style>
  </defs>
  <path class="st0" d="M435,608h-86v106.9l46.8.4c39.9.3,49.5.7,66.1,2.5,48.4,5.5,96.7,4.3,130.8-3.4,30.9-6.9,53.3-17.8,70.7-34.4,16.1-15.3,24.9-32.1,29.2-55.5,2.5-13.7,1.5-39.5-2-52.9-4.7-18-14.9-35-27.3-45.3-8.4-7.1-21.9-15-32.6-19.2-22.2-8.7-39.9-12.4-85.7-18.2-53-6.6-64.9-9.7-74.6-19.5-9.3-9.2-7.7-24.1,3.5-31.4,10.9-7.3,22.3-9.5,47.6-9.5,25.7,0,48.8,3.8,66,10.6l6,2.4.3,11.8.3,11.7h85.9v-107.9l-48.2-.4c-41.9-.3-50.7-.7-66.3-2.6-17.4-2.1-64.4-3.6-78-2.5-67.7,5.6-111.4,28.3-130.5,67.8-8.5,17.6-12,37.8-10,59.4,3.6,40.8,21.3,66.7,57.2,83.7,22.5,10.6,43,15.3,94.8,22,43.1,5.5,56.6,8.6,66.2,15.4,6.6,4.6,8.8,8.8,8.8,16.6,0,20-21.4,28.4-68.8,27.2-27.5-.6-53.6-5.3-66.3-11.7l-3.9-2v-22Z"/>
  <path class="st0" d="M272.5,316l6-8.3c13.3-18.3,39.2-46.7,55.3-60.5l5.3-4.5,18.7,4.6c30.3,7.4,69.9,14.7,97.2,17.8,5.8.6,10.8,1.5,11.2,1.8.5.4-.5,5-2.2,10.2-4.3,13.7-10,34.9-10,37.1s1.1,1.8,12.4,1.8h12.3l2.7-10.1c3.4-12.7,10.6-35.2,11.4-36s7.7-.1,16.2.6c33.2,2.8,82.9,3.9,118.2,2.7,18.4-.7,39.7-1.7,47.2-2.3,7.6-.6,14.2-.7,14.6-.2.8.9,5.7,15.8,8.9,26.8,1,3.8,2.7,9.6,3.5,12.7l1.7,5.8h12.4c9.4,0,12.5-.3,12.5-1.3,0-1.6-6-23.2-9.9-36.1-1.7-5.4-3.1-10.2-3.1-10.6s6.2-1.4,13.8-2.4c33.6-4.1,67.3-10.2,97.9-17.7l17.1-4.3,7,6.2c16.3,14.5,41.1,42.1,53.8,59.7l4.6,6.5h14.4c9.9,0,14.4-.3,14.4-1.1s-2.6-4.8-5.7-9.3c-56.8-81.4-135.8-138.7-228-165.1-30-8.6-63.6-14.1-91.8-15.1-8.2-.2-16.6-.6-18.5-.7-7.6-.5-40.2,1.2-52.5,2.8-48.7,6.3-90.1,18.6-132.5,39.6-55.6,27.5-102.6,65.3-141,113.4-9,11.4-25,33.6-25,34.9s6.6.6,14.8.6h14.7ZM667.1,155.6c46.9,9.9,94.1,29.9,136.7,58,7.8,5.1,14.2,9.7,14.2,10.2,0,2.5-74.5,15.6-106,18.7l-6.5.6-3.5-8.7c-4.6-11.7-15.3-32.7-22.4-44.2-5.8-9.3-17.2-25-24.1-33-4.4-5-4.5-5,11.6-1.6ZM576.9,150.3c13.6-4.6,27.7-2.3,41.6,6.7,13.2,8.7,26.1,23.3,39.1,44.3,6.4,10.2,21.4,40.3,21.4,42.8s-4,2.2-46.5,4c-35.4,1.5-100.4.1-125.2-2.6-4.3-.5-5.1-.9-4.6-2.3.3-.9,4.3-9.4,8.9-18.7,20.2-41.3,42.2-66.3,65.3-74.2ZM377.8,213.6c45.8-30,89.6-48.1,143.2-59.4,2.5-.6,5.6-1,7-1.1,2.3,0,2.3,0-1.1,3.6-15.4,16.2-34.4,47.3-46.6,75.8l-4.2,10-3.8-.3c-17.6-1.4-68.1-9.7-92.3-15.2-7.4-1.6-13.8-3-14.2-3-2.8,0,.8-3.1,12-10.4Z"/>
  <polygon class="st0" points="323 671.5 323 627 294 627 265 627 265 537 265 447 294 447 323 447 323 402.5 323 358 207.5 358 92 358 92.2 402.2 92.5 446.5 121.3 446.8 150 447 150 537 150 627 121 627 92 627 92.2 671.2 92.5 715.5 207.8 715.8 323 716 323 671.5"/>
  <path class="st0" d="M944,353.5c-11-1.7-51.5-2.9-61.5-1.9-29.8,3.1-53.9,9.4-76.2,19.9-53.4,25.3-86.6,72.3-94.8,134.3-1.7,13.1-2,44.7-.5,57.2,3.8,31.3,13.3,58.1,28.7,81.5,12.7,19.2,36.2,40.3,58.3,52.3,32.7,17.8,78.4,26.7,123.3,24.1,85.7-5.1,146.6-47.3,170.1-117.9,6.9-20.8,9.8-40.6,9.8-67,.1-55.1-16.1-98.1-49.6-131.6-27.5-27.4-63-44.2-107.6-50.9ZM954.5,618.5c-12.5,12.6-24,17.2-45.1,18.2-40.5,1.9-65-18.6-74.5-62.4-3-14-3.8-49.9-1.5-66.6,6-42.8,25.4-66.5,58.7-71.6,8.3-1.3,25.6-.5,33.9,1.4,14.8,3.6,28.1,12.8,36.3,25.3,11.8,17.8,16.7,39.3,16.7,73.2,0,41.3-7.1,65.2-24.5,82.5Z"/>
  <path class="st0" d="M909.3,758l-8.7,11.4c-4.7,6.3-13.5,17-19.5,23.9-10.4,11.7-32,33.2-36.8,36.4-2,1.3-3.7,1.1-18-2.6-27.6-7-64-13.9-93.3-17.6-6.9-.8-13.9-1.8-15.7-2.1l-3.2-.5,2.5-7.2c2.7-7.8,11.4-39,11.4-40.7s-4.2-1-12.6-.8l-12.6.3-3.3,12c-1.8,6.6-4.8,16.7-6.7,22.5l-3.4,10.5h-6.5c-3.5,0-16.5-.7-28.9-1.5-39.5-2.6-123.7-1.7-156,1.6l-5.6.6-4.2-13.3c-2.2-7.4-5.3-17.8-6.8-23.2l-2.7-9.7h-12.3c-11.2,0-12.4.2-12.4,1.8s5.9,23.6,10,36.5c1.7,5.5,3,10,2.8,10.1-.2,0-8.4,1.2-18.3,2.4-32,3.9-63,9.6-94.3,17.3l-16.3,4-5.7-4.9c-15.7-13.6-43.5-44.5-56.2-62.5l-3.3-4.7h-14.9c-11.7,0-14.8.3-14.2,1.2,12.6,21.5,41.4,56.1,64.4,77.5,66.9,62.2,144,98.2,235.5,110,17.6,2.2,71.4,2.5,90,.5,112.7-12.5,214.6-69.3,283.6-158.2,7.7-9.9,20.9-28.9,20.9-30.2s-6.5-.8-14.4-.8h-14.3ZM529.1,921c-.6,0-7.4-1.3-15.1-3-37.2-7.8-74.4-21.9-108.6-41-13.2-7.3-39.5-24.2-41.3-26.4-.8-1,2.8-2.1,16.2-5,21.1-4.5,39.9-7.7,63.9-11,10.1-1.4,19.7-2.7,21.3-2.9,1.7-.3,4.7-.4,6.8-.3h3.8c0,0,4.8,11.1,4.8,11.1,12.4,28.5,27.7,53.7,43.9,72.2,3,3.5,4.9,6.3,4.3,6.3ZM613.5,919.7c-10.2,5.2-16.8,6.7-25.9,6-9.3-.8-15-2.8-24.4-8.9-14.4-9.4-28.4-25.8-42.6-50.2-6.6-11.4-19.2-37.3-18.4-38.1s18.8-1.4,45.8-2.9c13.2-.7,93.1.3,109.5,1.4,19.4,1.3,21.5,1.6,21.5,3.2,0,3-18.6,38.5-26.1,49.8-11.3,17.1-27.9,33.8-39.4,39.7ZM809.4,856.6c-29.8,20.5-71,40.9-103.7,51.3-18.2,5.8-52.2,14-53.3,12.9-.2-.3,2.1-3.3,5.2-6.9,7.4-8.5,15.9-20.3,22.9-31.9,6.5-10.7,18.9-35.3,22.6-44.7q2.4-6.2,5.9-5.8c1.9.3,10.7,1.4,19.5,2.5,25.5,3.3,57.6,9.1,84.4,15.3l5.3,1.2-8.8,6.1Z"/>
</svg>