<?xml version="1.0" encoding="UTF-8"?>
<svg id="Layer_2" xmlns="http://www.w3.org/2000/svg" viewBox="0 0 110.98 110.98">
  <defs>
    <style>
      .cls-1 {
        fill: #32d951;
      }

      .cls-2 {
        fill: #fff;
      }
    </style>
  </defs>
  <g id="Layer_2-2" data-name="Layer_2">
    <g id="Layer_1-2">
      <g>
        <circle class="cls-1" cx="55.49" cy="55.49" r="55.49"/>
        <path class="cls-2" d="M82.76,27.88c-7.28-7.3-16.98-11.31-27.29-11.31-21.27,0-38.58,17.31-38.58,38.58,0,6.8,1.77,13.43,5.14,19.29l-5.47,19.99,20.46-5.37c5.63,3.08,11.97,4.69,18.44,4.69h.02c21.26,0,38.95-17.31,38.95-38.58,0-10.31-4.38-19.99-11.66-27.29h-.01ZM55.48,87.25c-5.77,0-11.42-1.55-16.34-4.47l-1.16-.7-12.13,3.18,3.23-11.84-.76-1.22c-3.22-5.11-4.9-11-4.9-17.07,0-17.68,14.39-32.07,32.08-32.07,8.57,0,16.61,3.34,22.66,9.4,6.05,6.07,9.77,14.11,9.75,22.68,0,17.69-14.76,32.08-32.43,32.08v.03ZM73.06,63.23c-.96-.49-5.7-2.82-6.59-3.13-.89-.33-1.53-.49-2.17.49-.64.97-2.49,3.13-3.06,3.79-.56.64-1.13.73-2.09.24-5.67-2.83-9.38-5.06-13.12-11.47-.99-1.7.99-1.58,2.83-5.27.31-.64.16-1.2-.09-1.69s-2.17-5.23-2.97-7.16c-.78-1.88-1.58-1.62-2.17-1.65-.56-.03-1.2-.03-1.84-.03s-1.69.24-2.57,1.2c-.89.97-3.37,3.3-3.37,8.05s3.46,9.33,3.93,9.98c.49.64,6.8,10.38,16.48,14.56,6.12,2.64,8.52,2.87,11.57,2.42,1.86-.28,5.7-2.33,6.5-4.59s.8-4.19.56-4.59c-.23-.43-.87-.68-1.82-1.15h-.01Z"/>
      </g>
    </g>
  </g>
</svg>